<svg width="2158" height="551" viewBox="0 0 2158 551" fill="none" xmlns="http://www.w3.org/2000/svg">
<path d="M238.477 63C242.187 65.9305 245.576 69.1795 248.646 72.747C251.715 76.3145 254.657 80.0094 257.471 83.8318C260.285 87.6541 263.035 91.5402 265.721 95.4899C268.407 99.3122 271.221 103.071 274.163 106.766C276.849 142.823 281.325 178.371 287.593 213.409C293.86 248.32 301.982 283.103 311.958 317.759C312.598 300.431 313.557 282.785 314.836 264.82C316.243 246.727 318.481 228.826 321.551 211.116C324.749 193.406 329.225 176.078 334.981 159.132C340.737 142.186 348.347 126.132 357.812 110.97C362.033 113.264 365.422 116.131 367.98 119.571C370.666 122.883 372.009 126.961 372.009 131.802V134.096C367.149 154.864 362.417 175.695 357.812 196.591C353.335 217.359 349.37 238.254 345.917 259.277C342.464 280.173 339.65 301.196 337.475 322.346C335.429 343.369 334.406 364.583 334.406 385.988L337.092 392.868C337.731 395.034 338.115 397.2 338.243 399.366C338.499 401.532 338.626 403.698 338.626 405.864C338.626 411.343 337.795 416.63 336.132 421.727C334.47 426.823 332.167 431.856 329.225 436.825L322.319 439.118C319.505 439.118 316.563 436.889 313.493 432.429C310.424 428.097 307.226 422.109 303.9 414.464C300.575 406.947 297.185 398.028 293.732 387.708C290.279 377.388 286.889 366.367 283.564 354.645C280.238 342.795 276.977 330.564 273.779 317.95C270.581 305.209 267.576 292.595 264.762 280.109C261.948 267.623 259.262 255.582 256.704 243.988C254.274 232.266 252.163 221.563 250.373 211.88C245.128 226.787 239.309 241.822 232.914 256.984C226.646 272.018 219.548 286.543 211.618 300.559C203.687 314.446 194.862 327.442 185.141 339.546C175.421 351.651 164.549 362.162 152.526 371.081C140.631 380 127.393 387.007 112.812 392.104C98.3583 397.328 82.3703 399.939 64.8474 399.939C53.9756 399.939 44.4467 398.092 36.2608 394.397C28.2029 390.83 21.4879 385.988 16.1159 379.872C10.744 373.756 6.71497 366.749 4.02898 358.849C1.34299 350.95 0 342.795 0 334.386C0 325.34 1.34299 316.931 4.02898 309.159C6.84288 301.387 10.616 294.315 15.3485 287.945C20.081 281.574 25.6448 275.904 32.04 270.935C38.4352 265.839 45.2141 261.571 52.3768 258.131C59.6673 254.69 67.2137 252.079 75.0158 250.295C82.818 248.511 90.5562 247.619 98.2304 247.619C102.451 247.619 107.12 247.747 112.236 248.001C117.48 248.129 122.404 248.702 127.009 249.721C131.613 250.741 135.451 252.397 138.52 254.69C141.718 256.984 143.317 260.233 143.317 264.437C141.782 266.731 139.927 268.323 137.753 269.215C135.706 270.107 133.404 270.553 130.846 270.553C128.288 270.553 125.538 270.235 122.596 269.598C119.782 268.961 116.904 268.26 113.963 267.495C111.021 266.731 108.079 266.03 105.137 265.393C102.323 264.756 99.6374 264.437 97.0793 264.437C89.533 264.437 81.7947 265.52 73.8647 267.686C66.0625 269.852 58.9638 273.356 52.5686 278.198C46.1734 283.039 40.9293 289.346 36.8364 297.118C32.7435 304.763 30.697 314.128 30.697 325.213C30.697 332.475 31.8481 338.973 34.1504 344.707C36.5806 350.313 39.8422 355.027 43.9351 358.849C48.1559 362.672 53.0802 365.602 58.708 367.641C64.3358 369.552 70.4113 370.507 76.9344 370.507C90.4922 370.507 102.771 368.787 113.771 365.347C124.771 361.907 134.747 357.129 143.7 351.013C152.654 344.77 160.712 337.444 167.874 329.035C175.037 320.498 181.56 311.197 187.444 301.132C193.327 291.066 198.699 280.428 203.56 269.215C208.42 258.003 213.024 246.6 217.373 235.005C221.722 223.411 225.943 211.817 230.036 200.222C234.129 188.628 238.35 177.415 242.698 166.585C240.268 151.169 238.094 135.816 236.175 120.526C234.384 105.109 232.658 89.5653 230.995 73.8937L238.477 63Z" fill="white"/>
<path d="M455.275 353.498C455.275 347.764 455.787 341.712 456.81 335.342C457.961 328.971 459.432 322.473 461.223 315.848C455.723 324.894 450.095 333.749 444.339 342.413C438.584 350.95 432.764 358.594 426.88 365.347C421.125 372.1 415.241 377.579 409.23 381.783C403.346 385.86 397.462 387.899 391.579 387.899C386.846 387.899 382.753 386.88 379.3 384.841C375.847 382.675 372.969 379.936 370.666 376.623C368.492 373.183 366.829 369.297 365.678 364.965C364.655 360.633 364.143 356.237 364.143 351.778C364.143 340.056 365.678 328.908 368.748 318.332C371.945 307.63 376.166 297.756 381.41 288.709C386.654 279.663 392.794 271.509 399.829 264.246C406.863 256.984 414.218 250.804 421.892 245.708C429.694 240.611 437.624 236.725 445.682 234.05C453.74 231.247 461.478 229.845 468.897 229.845C473.757 229.845 477.275 230.546 479.449 231.948C481.751 233.349 482.902 235.069 482.902 237.108C482.902 239.146 481.879 241.312 479.833 243.606C477.786 245.899 474.844 248.065 471.007 250.104C460.903 252.524 451.566 256.347 442.996 261.571C434.555 266.667 427.2 272.974 420.933 280.491C414.793 288.009 409.997 296.609 406.544 306.292C403.09 315.848 401.363 326.232 401.363 337.444C401.363 344.961 401.619 350.185 402.131 353.116C402.642 356.046 403.985 357.511 406.16 357.511C408.718 357.511 411.852 355.6 415.561 351.778C419.398 347.956 423.619 342.923 428.223 336.68C432.828 330.437 437.688 323.301 442.804 315.275C447.921 307.248 453.037 299.093 458.153 290.812C463.397 282.402 468.577 274.248 473.693 266.349C478.809 258.449 483.606 251.378 488.082 245.135C489.362 243.478 491.024 242.395 493.071 241.886C495.117 241.249 497.292 240.93 499.594 240.93C503.815 240.93 506.948 241.312 508.995 242.077C511.169 242.714 513.216 244.498 515.134 247.428C514.239 250.868 512.896 254.818 511.105 259.277C509.315 263.737 507.396 268.578 505.35 273.802C503.303 278.899 501.193 284.186 499.018 289.665C496.844 295.144 494.861 300.622 493.071 306.101C491.28 311.58 489.809 316.931 488.658 322.155C487.507 327.251 486.931 332.029 486.931 336.489C486.931 339.674 487.187 342.732 487.699 345.662C488.21 348.593 489.17 351.205 490.577 353.498C491.984 355.664 493.902 357.448 496.332 358.849C498.89 360.123 502.152 360.76 506.117 360.76C507.524 360.251 508.995 359.996 510.53 359.996C515.262 359.996 518.332 362.926 519.739 368.787C519.739 370.571 518.588 372.546 516.285 374.712C513.983 376.878 511.105 378.98 507.652 381.019C504.198 382.93 500.425 384.586 496.332 385.988C492.239 387.262 488.338 387.899 484.629 387.899C479.129 387.899 474.525 387.071 470.815 385.415C467.106 383.631 464.1 381.21 461.798 378.152C459.496 375.094 457.833 371.463 456.81 367.258C455.787 363.054 455.275 358.467 455.275 353.498Z" fill="white"/>
<path d="M534.512 387.899C532.977 383.312 531.826 378.152 531.058 372.419C530.419 366.558 530.099 360.314 530.099 353.689C530.099 342.477 531.058 330.245 532.977 316.995C534.895 303.744 537.517 290.047 540.843 275.904C544.296 261.762 548.389 247.555 553.122 233.285C557.854 219.015 563.034 205.319 568.662 192.195C574.418 178.944 580.557 166.585 587.08 155.118C593.603 143.651 600.318 133.713 607.225 125.304C614.26 116.768 621.359 110.079 628.521 105.237C635.684 100.268 642.783 97.7833 649.817 97.7833C653.782 97.7833 656.916 98.6115 659.218 100.268C661.649 101.924 663.439 104.026 664.59 106.575C665.869 108.996 666.637 111.735 666.893 114.793C667.276 117.851 667.468 120.781 667.468 123.584C667.468 130.21 665.805 137.536 662.48 145.563C659.282 153.462 655.061 161.744 649.817 170.408C644.573 179.072 638.626 187.863 631.975 196.782C625.324 205.701 618.609 214.365 611.83 222.774C605.179 231.056 598.656 238.891 592.26 246.281C585.993 253.671 580.621 260.169 576.145 265.775L568.087 303.999C568.598 304.253 569.046 304.381 569.43 304.381C574.674 299.539 579.79 294.315 584.778 288.709C589.894 283.103 594.819 277.561 599.551 272.082C604.283 266.476 608.824 261.125 613.173 256.028C617.522 250.804 621.551 246.281 625.26 242.459C628.969 238.509 632.294 235.388 635.236 233.094C638.178 230.673 640.672 229.463 642.719 229.463C645.277 229.463 647.643 230.1 649.817 231.374C651.992 232.521 653.846 234.114 655.381 236.152C656.916 238.063 658.131 240.229 659.026 242.65C659.922 245.071 660.369 247.492 660.369 249.913C660.369 252.588 658.259 256.411 654.038 261.38C649.945 266.349 644.445 271.827 637.539 277.816C630.76 283.804 623.021 290.111 614.324 296.736C605.754 303.362 597.057 309.732 588.231 315.848C593.348 320.69 598.144 326.232 602.621 332.475C607.225 338.718 611.894 344.643 616.626 350.249C621.487 355.728 626.667 360.378 632.167 364.201C637.794 367.895 644.254 369.743 651.544 369.743C652.184 369.743 652.823 369.743 653.463 369.743C654.23 369.743 654.934 369.679 655.573 369.552C658.899 369.552 661.265 370.253 662.672 371.654C664.079 372.928 664.782 374.648 664.782 376.814C664.782 378.598 664.335 380.573 663.439 382.739C662.544 384.777 661.393 386.88 659.986 389.046C656.021 391.212 652.184 392.741 648.474 393.633C644.893 394.524 641.376 394.97 637.922 394.97C632.806 394.97 627.946 393.951 623.341 391.913C618.737 390.001 614.26 387.453 609.911 384.268C605.563 380.955 601.278 377.26 597.057 373.183C592.964 368.978 588.871 364.71 584.778 360.378C580.813 355.919 576.848 351.587 572.883 347.382C569.046 343.178 565.145 339.419 561.18 336.106L554.657 367.45L551.203 378.917L534.512 387.899ZM633.893 139.638C633.893 134.542 632.231 131.993 628.905 131.993C627.114 131.993 624.876 133.841 622.19 137.536C619.632 141.103 616.882 145.945 613.94 152.061C611.126 158.049 608.185 164.929 605.115 172.701C602.045 180.473 599.103 188.437 596.289 196.591C593.476 204.745 590.917 212.836 588.615 220.863C586.441 228.762 584.65 235.961 583.243 242.459C586.697 238.509 590.342 233.731 594.179 228.125C598.144 222.519 601.981 216.467 605.69 209.969C609.4 203.471 612.981 196.846 616.434 190.093C619.888 183.213 622.894 176.651 625.452 170.408C628.01 164.037 630.056 158.176 631.591 152.825C633.126 147.474 633.893 143.078 633.893 139.638Z" fill="white"/>
<path d="M763.013 353.498C763.013 347.764 763.524 341.712 764.547 335.342C765.699 328.971 767.169 322.473 768.96 315.848C763.46 324.894 757.832 333.749 752.077 342.413C746.321 350.95 740.501 358.594 734.618 365.347C728.862 372.1 722.979 377.579 716.967 381.783C711.083 385.86 705.2 387.899 699.316 387.899C694.584 387.899 690.491 386.88 687.037 384.841C683.584 382.675 680.706 379.936 678.404 376.623C676.23 373.183 674.567 369.297 673.416 364.965C672.392 360.633 671.881 356.237 671.881 351.778C671.881 340.056 673.416 328.908 676.485 318.332C679.683 307.63 683.904 297.756 689.148 288.709C694.392 279.663 700.531 271.509 707.566 264.246C714.601 256.984 721.955 250.804 729.63 245.708C737.432 240.611 745.362 236.725 753.42 234.05C761.478 231.247 769.216 229.845 776.634 229.845C781.495 229.845 785.012 230.546 787.187 231.948C789.489 233.349 790.64 235.069 790.64 237.108C790.64 239.146 789.617 241.312 787.57 243.606C785.524 245.899 782.582 248.065 778.745 250.104C768.64 252.524 759.303 256.347 750.734 261.571C742.292 266.667 734.938 272.974 728.67 280.491C722.531 288.009 717.735 296.609 714.281 306.292C710.828 315.848 709.101 326.232 709.101 337.444C709.101 344.961 709.357 350.185 709.868 353.116C710.38 356.046 711.723 357.511 713.897 357.511C716.455 357.511 719.589 355.6 723.298 351.778C727.135 347.956 731.356 342.923 735.961 336.68C740.565 330.437 745.426 323.301 750.542 315.275C755.658 307.248 760.774 299.093 765.89 290.812C771.135 282.402 776.315 274.248 781.431 266.349C786.547 258.449 791.343 251.378 795.82 245.135C797.099 243.478 798.762 242.395 800.808 241.886C802.855 241.249 805.029 240.93 807.331 240.93C811.552 240.93 814.686 241.312 816.732 242.077C818.907 242.714 820.953 244.498 822.872 247.428C821.976 250.868 820.633 254.818 818.843 259.277C817.052 263.737 815.134 268.578 813.087 273.802C811.041 278.899 808.93 284.186 806.756 289.665C804.581 295.144 802.599 300.622 800.808 306.101C799.018 311.58 797.547 316.931 796.396 322.155C795.244 327.251 794.669 332.029 794.669 336.489C794.669 339.674 794.925 342.732 795.436 345.662C795.948 348.593 796.907 351.205 798.314 353.498C799.721 355.664 801.64 357.448 804.07 358.849C806.628 360.123 809.889 360.76 813.855 360.76C815.261 360.251 816.732 359.996 818.267 359.996C823 359.996 826.069 362.926 827.476 368.787C827.476 370.571 826.325 372.546 824.023 374.712C821.721 376.878 818.843 378.98 815.389 381.019C811.936 382.93 808.163 384.586 804.07 385.988C799.977 387.262 796.076 387.899 792.367 387.899C786.867 387.899 782.262 387.071 778.553 385.415C774.844 383.631 771.838 381.21 769.536 378.152C767.233 375.094 765.571 371.463 764.547 367.258C763.524 363.054 763.013 358.467 763.013 353.498Z" fill="white"/>
<path d="M926.858 212.071C931.335 212.071 934.468 213.154 936.259 215.32C938.177 217.359 939.137 220.162 939.137 223.729C939.137 227.807 938.05 232.585 935.875 238.063C933.829 243.415 931.271 248.766 928.201 254.117C925.131 259.468 921.806 264.501 918.224 269.215C914.771 273.802 911.637 277.433 908.823 280.109C913.3 286.734 916.69 293.869 918.992 301.514C921.294 309.031 922.445 316.74 922.445 324.639C922.445 332.539 921.23 340.502 918.8 348.529C916.498 356.428 913.044 363.563 908.44 369.934C903.835 376.305 898.143 381.465 891.364 385.415C884.713 389.364 876.975 391.339 868.15 391.339C864.696 391.339 860.923 390.83 856.83 389.81C852.865 388.791 849.156 387.326 845.703 385.415C842.249 383.376 839.307 380.891 836.877 377.961C834.575 375.031 833.424 371.718 833.424 368.023C833.424 365.602 833.935 363.309 834.959 361.143C836.11 358.849 837.517 356.747 839.18 354.836C840.842 352.797 842.697 351.013 844.743 349.485C846.918 347.828 848.964 346.427 850.883 345.28C853.057 345.28 855.168 346.299 857.214 348.338C859.388 350.376 861.755 352.606 864.313 355.027C866.871 357.32 869.749 359.486 872.946 361.525C876.144 363.563 879.853 364.583 884.074 364.583C886.888 364.583 889.254 364.137 891.173 363.245C893.091 362.226 894.562 360.952 895.585 359.423C896.609 357.894 897.312 356.237 897.696 354.454C898.207 352.542 898.463 350.695 898.463 348.911C898.463 345.089 897.504 341.012 895.585 336.68C893.795 332.22 891.684 327.761 889.254 323.301C886.824 318.842 884.394 314.51 881.964 310.306C879.661 305.974 877.998 302.087 876.975 298.647C870.58 302.342 863.801 305.528 856.638 308.203C849.476 310.751 842.249 312.344 834.959 312.981C829.715 312.981 827.093 311.643 827.093 308.968C827.093 307.566 827.668 306.101 828.819 304.572C829.843 302.916 831.441 301.769 833.616 301.132C848.069 299.858 862.202 296.29 876.016 290.429C875.888 289.283 875.76 288.136 875.632 286.989C875.632 285.715 875.632 284.441 875.632 283.167C875.632 275.267 876.719 267.113 878.894 258.704C881.196 250.295 884.458 242.65 888.678 235.77C893.027 228.89 898.399 223.22 904.794 218.76C911.19 214.301 918.544 212.071 926.858 212.071ZM919.184 236.725C919.184 235.197 918.928 233.986 918.416 233.094C918.033 232.075 917.137 231.565 915.73 231.565C914.323 231.565 912.916 232.457 911.509 234.241C910.23 236.025 909.079 238.318 908.056 241.121C907.033 243.797 906.201 246.855 905.562 250.295C905.05 253.607 904.794 256.856 904.794 260.042C904.794 262.845 905.114 265.648 905.754 268.451C907.033 266.667 908.376 264.374 909.783 261.571C911.318 258.768 912.724 255.901 914.004 252.97C915.41 249.913 916.562 246.982 917.457 244.179C918.48 241.249 919.056 238.764 919.184 236.725Z" fill="white"/>
<path d="M944.125 368.978C944.125 364.774 944.509 360.378 945.276 355.791C946.044 351.205 946.683 347 947.195 343.178C947.578 331.965 948.793 319.861 950.84 306.865C953.014 293.869 955.892 280.555 959.473 266.922C963.055 253.289 967.212 239.656 971.944 226.023C976.805 212.262 982.049 199.139 987.676 186.653C993.432 174.039 999.507 162.317 1005.9 151.487C1012.43 140.53 1019.08 131.038 1025.86 123.011C1032.76 114.984 1039.73 108.677 1046.77 104.09C1053.93 99.5034 1060.97 97.21 1067.87 97.21C1071.84 97.21 1074.97 98.0381 1077.27 99.6945C1079.7 101.223 1081.49 103.262 1082.65 105.81C1083.92 108.231 1084.69 110.97 1084.95 114.028C1085.33 116.959 1085.52 119.825 1085.52 122.629C1085.52 129.127 1083.86 136.325 1080.53 144.225C1077.34 152.124 1073.05 160.342 1067.68 168.879C1062.44 177.415 1056.42 186.079 1049.65 194.871C1042.99 203.662 1036.28 212.199 1029.5 220.48C1022.72 228.635 1016.14 236.407 1009.74 243.797C1003.47 251.059 998.037 257.43 993.432 262.908L985.182 301.323L984.415 317.95C988.38 312.726 992.345 307.12 996.31 301.132C1000.4 295.016 1004.5 288.964 1008.59 282.976C1012.81 276.987 1017.03 271.254 1021.25 265.775C1025.6 260.297 1029.95 255.455 1034.3 251.25C1038.77 247.046 1043.25 243.669 1047.73 241.121C1052.2 238.573 1056.74 237.299 1061.35 237.299C1065.19 237.299 1067.87 238.382 1069.41 240.548C1070.94 242.586 1071.71 245.453 1071.71 249.148C1071.71 252.716 1071.07 256.984 1069.79 261.953C1068.64 266.795 1067.1 272.082 1065.19 277.816C1063.4 283.549 1061.41 289.601 1059.24 295.972C1057.19 302.342 1055.21 308.777 1053.29 315.275C1051.5 321.645 1049.97 328.016 1048.69 334.386C1047.54 340.629 1046.96 346.618 1046.96 352.351C1046.96 357.066 1047.09 361.843 1047.34 366.685C1047.6 371.527 1048.49 375.922 1050.03 379.872C1051.56 383.822 1053.93 387.071 1057.13 389.619C1060.45 392.167 1065.19 393.441 1071.33 393.441C1074.14 393.441 1077.02 393.187 1079.96 392.677L1081.3 396.69C1081.3 399.111 1080.02 401.532 1077.47 403.953C1074.91 406.374 1071.77 408.54 1068.06 410.451C1064.48 412.362 1060.65 413.891 1056.55 415.038C1052.46 416.312 1048.88 416.949 1045.81 416.949C1039.54 416.949 1034.3 415.484 1030.08 412.553C1025.98 409.623 1022.66 405.673 1020.1 400.704C1017.67 395.862 1015.88 390.256 1014.73 383.886C1013.7 377.388 1013.19 370.571 1013.19 363.436C1013.19 356.811 1013.58 350.058 1014.34 343.178C1015.11 336.17 1016.07 329.481 1017.22 323.11C1018.5 316.612 1019.84 310.688 1021.25 305.336C1022.79 299.858 1024.32 295.207 1025.86 291.385L1022.98 289.665C1018.63 294.507 1014.47 300.304 1010.51 307.057C1006.67 313.682 1002.96 320.562 999.38 327.697C995.798 334.832 992.281 341.967 988.827 349.102C985.502 356.11 982.113 362.417 978.659 368.023C975.334 373.502 971.88 377.961 968.299 381.401C964.845 384.841 961.2 386.561 957.363 386.561C954.805 386.561 952.631 386.115 950.84 385.223C949.177 384.332 947.834 383.121 946.811 381.592C945.788 379.936 945.084 378.025 944.701 375.859C944.317 373.693 944.125 371.399 944.125 368.978ZM1051.76 138.491C1051.76 136.198 1051.31 134.414 1050.41 133.14C1049.65 131.738 1048.37 131.038 1046.58 131.038C1044.79 131.038 1042.55 132.885 1039.86 136.58C1037.3 140.148 1034.55 144.926 1031.61 150.914C1028.8 156.775 1025.86 163.528 1022.79 171.172C1019.72 178.69 1016.77 186.525 1013.96 194.68C1011.15 202.707 1008.59 210.67 1006.29 218.569C1003.98 226.341 1002.13 233.413 1000.72 239.783C1004.18 235.961 1007.82 231.31 1011.66 225.832C1015.62 220.226 1019.46 214.237 1023.17 207.867C1027.01 201.496 1030.65 194.935 1034.11 188.182C1037.56 181.429 1040.56 174.931 1043.12 168.688C1045.81 162.445 1047.92 156.711 1049.45 151.487C1050.99 146.263 1051.76 141.931 1051.76 138.491Z" fill="white"/>
<path d="M1101.83 388.09C1097.99 388.09 1094.48 386.752 1091.28 384.077C1088.08 381.274 1086.48 377.579 1086.48 372.992C1086.48 366.112 1087.57 358.913 1089.74 351.396C1092.05 343.878 1094.54 336.234 1097.23 328.462C1099.91 320.69 1102.34 312.981 1104.52 305.336C1106.82 297.692 1107.97 290.429 1107.97 283.549C1107.97 276.159 1107.27 270.744 1105.86 267.304C1104.45 263.864 1102.92 261.443 1101.26 260.042C1099.59 258.64 1098.06 257.876 1096.65 257.748C1095.24 257.621 1094.54 257.175 1094.54 256.411C1094.54 251.824 1095.69 248.065 1097.99 245.135C1100.42 242.077 1103.49 239.656 1107.2 237.872C1110.91 236.088 1115.01 234.751 1119.48 233.859C1123.96 232.967 1128.31 232.33 1132.53 231.948C1135.34 231.948 1137.45 232.967 1138.86 235.005C1140.39 237.044 1141.48 239.528 1142.12 242.459C1142.76 245.389 1143.14 248.511 1143.27 251.824C1143.4 255.009 1143.59 257.748 1143.85 260.042C1143.85 269.343 1142.57 279.026 1140.01 289.092C1137.58 299.03 1134.7 309.159 1131.38 319.479C1128.18 329.672 1124.98 339.865 1121.78 350.058C1118.59 360.251 1116.35 370.189 1115.07 379.872C1113.53 382.803 1111.55 384.905 1109.12 386.179C1106.82 387.453 1104.39 388.09 1101.83 388.09ZM1156.13 181.875C1156.13 185.188 1155.42 188.373 1154.02 191.431C1152.74 194.361 1150.95 197.037 1148.64 199.458C1146.47 201.878 1143.91 203.79 1140.97 205.191C1138.03 206.593 1135.02 207.293 1131.95 207.293C1127.86 207.293 1124.6 205.956 1122.17 203.28C1119.87 200.604 1118.71 197.228 1118.71 193.151C1118.71 190.22 1119.42 187.29 1120.82 184.359C1122.23 181.301 1124.09 178.562 1126.39 176.141C1128.69 173.721 1131.25 171.746 1134.06 170.217C1137 168.688 1140.01 167.923 1143.08 167.923C1147.17 167.923 1150.37 169.261 1152.67 171.937C1154.98 174.485 1156.13 177.798 1156.13 181.875Z" fill="white"/>
<path d="M1498.97 269.215C1497.44 271.509 1495.58 273.101 1493.41 273.993C1491.36 274.885 1489.06 275.331 1486.5 275.331C1483.94 275.331 1481.19 275.013 1478.25 274.376C1475.44 273.738 1472.56 273.038 1469.62 272.273C1466.68 271.509 1463.74 270.808 1460.79 270.171C1457.98 269.534 1455.29 269.215 1452.74 269.215C1445.19 269.215 1437.45 270.298 1429.52 272.464C1421.72 274.63 1414.62 278.134 1408.23 282.976C1401.83 287.817 1396.59 294.124 1392.49 301.896C1388.4 309.541 1386.35 318.906 1386.35 329.991C1386.35 337.253 1387.5 343.751 1389.81 349.485C1392.24 355.091 1395.5 359.805 1399.59 363.627C1403.81 367.45 1408.74 370.38 1414.36 372.419C1419.99 374.33 1426.07 375.285 1432.59 375.285C1442.18 375.285 1451.2 373.948 1459.64 371.272C1468.21 368.596 1476.14 364.965 1483.43 360.378C1490.85 355.664 1497.69 350.122 1503.96 343.751C1510.36 337.253 1516.11 330.245 1521.23 322.728C1520.08 322.601 1518.93 322.537 1517.78 322.537C1516.62 322.537 1515.47 322.537 1514.32 322.537C1504.35 322.537 1494.56 323.238 1484.97 324.639C1475.38 326.041 1466.29 328.78 1457.72 332.857C1456.7 333.877 1455.49 334.386 1454.08 334.386C1452.54 334.386 1451.2 333.813 1450.05 332.666C1448.9 331.52 1448.32 330.182 1448.32 328.653C1448.32 327.379 1448.9 326.168 1450.05 325.022C1455.93 319.033 1462.2 314.192 1468.85 310.497C1475.63 306.674 1482.67 303.744 1489.96 301.705C1497.37 299.539 1504.92 298.138 1512.6 297.501C1520.4 296.736 1528.33 296.354 1536.39 296.354L1609.1 166.012C1609.74 161.17 1610.31 156.647 1610.83 152.443C1611.47 148.111 1611.91 144.097 1612.17 140.402L1635.96 83.0673H1642.29C1643.57 85.7429 1644.98 88.3549 1646.51 90.9031C1648.17 93.4513 1649.64 96.0633 1650.92 98.7389C1652.33 101.415 1653.48 104.154 1654.38 106.957C1655.27 109.633 1655.72 112.499 1655.72 115.557C1650.22 130.337 1645.42 145.053 1641.33 159.705C1637.24 174.23 1633.66 188.946 1630.59 203.853C1627.65 218.633 1625.09 233.731 1622.91 249.148C1620.74 264.437 1618.82 280.236 1617.16 296.545C1624.45 295.653 1631.55 294.315 1638.45 292.532C1645.36 290.62 1652.07 287.881 1658.6 284.314L1665.89 289.856C1659.24 300.049 1651.56 307.694 1642.87 312.79C1634.3 317.887 1624.9 321.39 1614.66 323.301C1614.41 326.359 1614.15 329.481 1613.9 332.666C1613.64 335.852 1613.38 339.037 1613.13 342.222C1613.13 350.122 1613.51 357.448 1614.28 364.201C1615.05 370.953 1616.45 376.814 1618.5 381.783C1620.55 386.752 1623.36 390.638 1626.94 393.441C1630.52 396.372 1635.13 397.837 1640.76 397.837L1649.77 395.735C1653.87 395.735 1657.06 396.69 1659.37 398.602C1661.67 400.64 1662.82 403.252 1662.82 406.437C1662.82 408.349 1662.18 410.323 1660.9 412.362C1659.75 414.528 1657.83 416.758 1655.14 419.051C1649.52 420.835 1644.27 422.109 1639.41 422.873C1634.68 423.765 1630.2 424.211 1625.98 424.211C1617.54 424.211 1610.31 422.619 1604.3 419.433C1598.29 416.376 1593.37 412.044 1589.53 406.437C1585.82 400.959 1583.07 394.461 1581.28 386.943C1579.62 379.299 1578.79 371.081 1578.79 362.289C1578.79 350.822 1579.55 338.591 1581.09 325.595C1574.56 325.467 1568.04 325.213 1561.52 324.83C1555 324.321 1548.41 323.875 1541.76 323.493C1534.72 335.087 1526.98 345.853 1518.54 355.791C1510.1 365.729 1500.83 374.33 1490.72 381.592C1480.75 388.855 1469.94 394.524 1458.3 398.602C1446.66 402.679 1434.06 404.717 1420.5 404.717C1409.63 404.717 1400.1 402.87 1391.92 399.175C1383.86 395.607 1377.14 390.766 1371.77 384.65C1366.4 378.534 1362.37 371.527 1359.69 363.627C1357 355.728 1355.66 347.573 1355.66 339.164C1355.66 330.245 1357 321.9 1359.69 314.128C1362.5 306.228 1366.27 299.093 1371.01 292.723C1375.74 286.352 1381.3 280.682 1387.7 275.713C1394.09 270.617 1400.87 266.349 1408.03 262.908C1415.32 259.468 1422.87 256.856 1430.67 255.073C1438.47 253.289 1446.21 252.397 1453.89 252.397C1458.11 252.397 1462.78 252.524 1467.89 252.779C1473.14 252.907 1478.06 253.48 1482.67 254.499C1487.27 255.519 1491.11 257.175 1494.18 259.468C1497.37 261.762 1498.97 265.011 1498.97 269.215ZM1584.73 297.501C1586.91 283.868 1589.34 270.171 1592.02 256.411C1594.71 242.523 1597.33 229.017 1599.89 215.894L1556.34 297.501H1584.73Z" fill="white"/>
<path d="M1687.76 388.09C1683.92 388.09 1680.41 386.752 1677.21 384.077C1674.01 381.274 1672.41 377.579 1672.41 372.992C1672.41 366.112 1673.5 358.913 1675.67 351.396C1677.98 343.878 1680.47 336.234 1683.16 328.462C1685.84 320.69 1688.27 312.981 1690.45 305.336C1692.75 297.692 1693.9 290.429 1693.9 283.549C1693.9 276.159 1693.2 270.744 1691.79 267.304C1690.38 263.864 1688.85 261.443 1687.18 260.042C1685.52 258.64 1683.99 257.876 1682.58 257.748C1681.17 257.621 1680.47 257.175 1680.47 256.411C1680.47 251.824 1681.62 248.065 1683.92 245.135C1686.35 242.077 1689.42 239.656 1693.13 237.872C1696.84 236.088 1700.93 234.751 1705.41 233.859C1709.89 232.967 1714.24 232.33 1718.46 231.948C1720.89 231.948 1722.81 232.648 1724.21 234.05C1725.75 235.451 1726.96 237.299 1727.86 239.592C1728.75 241.758 1729.33 244.243 1729.58 247.046C1729.97 249.849 1730.16 252.652 1730.16 255.455C1730.16 257.748 1730.1 259.978 1729.97 262.144C1729.84 264.183 1729.65 266.094 1729.39 267.878L1759.13 239.783C1762.71 238.254 1766.29 237.49 1769.87 237.49C1773.07 237.49 1775.76 238.191 1777.93 239.592C1780.23 240.994 1781.39 243.16 1781.39 246.09C1781.39 248.384 1780.62 251.059 1779.08 254.117C1777.17 256.283 1775.31 258.704 1773.52 261.38C1771.73 263.928 1770.07 266.603 1768.53 269.406C1767.12 272.082 1765.97 274.821 1765.08 277.624C1764.18 280.3 1763.74 282.848 1763.74 285.269C1763.74 289.474 1765.33 292.978 1768.53 295.781C1771.73 298.456 1777.29 299.794 1785.22 299.794C1786.76 301.578 1787.53 303.298 1787.53 304.954C1787.53 306.738 1786.89 308.394 1785.61 309.923C1784.33 311.325 1782.73 312.599 1780.81 313.746C1778.89 314.765 1776.85 315.593 1774.67 316.23C1772.62 316.74 1770.77 316.995 1769.11 316.995C1764.76 316.995 1760.54 316.103 1756.44 314.319C1752.48 312.408 1748.9 309.923 1745.7 306.865C1742.5 303.68 1739.88 300.113 1737.83 296.163C1735.92 292.086 1734.89 287.817 1734.76 283.358L1724.79 293.678C1723 300.813 1720.89 308.012 1718.46 315.275C1716.15 322.537 1713.85 329.799 1711.55 337.062C1709.25 344.324 1707.14 351.587 1705.22 358.849C1703.3 365.984 1701.89 372.992 1701 379.872C1699.46 382.803 1697.48 384.905 1695.05 386.179C1692.75 387.453 1690.32 388.09 1687.76 388.09Z" fill="white"/>
<path d="M1947.34 355.6C1947.34 351.013 1947.53 346.108 1947.92 340.884C1948.43 335.533 1949.07 330.054 1949.84 324.448C1950.73 318.842 1951.69 313.172 1952.71 307.439C1953.86 301.705 1955.14 296.099 1956.55 290.62C1955.27 287.817 1953.74 286.416 1951.95 286.416C1950.8 286.416 1949.58 286.989 1948.3 288.136C1947.15 289.155 1945.93 290.557 1944.66 292.341C1941.59 298.711 1938.58 305.4 1935.64 312.408C1932.7 319.415 1929.63 326.359 1926.43 333.24C1923.23 340.12 1919.78 346.681 1916.07 352.925C1912.49 359.168 1908.39 364.646 1903.79 369.361C1899.31 374.075 1894.2 377.834 1888.44 380.637C1882.81 383.44 1876.42 384.841 1869.26 384.841C1869.26 382.548 1869.45 378.152 1869.83 371.654C1870.34 365.029 1871.24 357.257 1872.52 348.338C1873.8 339.292 1875.52 329.545 1877.7 319.097C1879.87 308.522 1882.62 298.074 1885.95 287.754C1885.05 286.862 1884.09 286.416 1883.07 286.416C1881.92 286.416 1880.7 286.989 1879.42 288.136C1878.27 289.155 1877.06 290.557 1875.78 292.341C1872.71 297.819 1869.58 304.062 1866.38 311.07C1863.18 317.95 1859.86 324.958 1856.4 332.093C1853.08 339.1 1849.62 345.981 1846.04 352.734C1842.46 359.486 1838.75 365.475 1834.91 370.699C1831.08 375.922 1827.05 380.127 1822.83 383.312C1818.73 386.498 1814.51 388.09 1810.16 388.09C1806.33 388.09 1802.81 386.752 1799.61 384.077C1796.41 381.274 1794.82 377.579 1794.82 372.992C1794.82 366.112 1795.9 358.913 1798.08 351.396C1800.38 343.878 1802.87 336.234 1805.56 328.462C1808.25 320.69 1810.68 312.981 1812.85 305.336C1815.15 297.692 1816.3 290.429 1816.3 283.549C1816.3 276.159 1815.6 270.744 1814.19 267.304C1812.79 263.864 1811.25 261.443 1809.59 260.042C1807.93 258.64 1806.39 257.876 1804.98 257.748C1803.58 257.621 1802.87 257.175 1802.87 256.411C1802.87 251.824 1804.03 248.065 1806.33 245.135C1808.76 242.077 1811.83 239.656 1815.54 237.872C1819.25 236.088 1823.34 234.751 1827.82 233.859C1832.29 232.967 1836.64 232.33 1840.86 231.948C1843.68 231.948 1845.79 232.967 1847.19 235.005C1848.73 237.044 1849.81 239.528 1850.45 242.459C1851.09 245.389 1851.48 248.511 1851.61 251.824C1851.73 255.009 1851.93 257.748 1852.18 260.042C1852.18 271.381 1850.45 283.294 1847 295.781C1843.68 308.267 1839.77 320.69 1835.3 333.048C1840.16 328.334 1844.7 323.174 1848.92 317.568C1853.14 311.834 1857.17 305.974 1861.01 299.985C1864.97 293.869 1868.81 287.754 1872.52 281.638C1876.35 275.522 1880.26 269.789 1884.22 264.437C1888.31 258.959 1892.53 254.053 1896.88 249.721C1901.36 245.262 1906.28 241.631 1911.66 238.828C1913.19 237.681 1914.66 237.108 1916.07 237.108C1918.37 237.108 1920.48 238.127 1922.4 240.166C1924.45 242.077 1925.92 244.306 1926.81 246.855C1924.25 251.569 1922.14 256.411 1920.48 261.38C1918.95 266.349 1917.73 271.381 1916.84 276.478C1915.94 281.447 1915.3 286.543 1914.92 291.767C1914.66 296.864 1914.53 302.024 1914.53 307.248C1914.53 309.414 1914.53 311.707 1914.53 314.128C1914.53 316.421 1914.6 318.842 1914.73 321.39C1920.23 314.383 1925.21 306.929 1929.69 299.03C1934.3 291.13 1939.03 283.422 1943.89 275.904C1948.88 268.387 1954.31 261.316 1960.2 254.69C1966.21 248.065 1973.37 242.523 1981.68 238.063L1981.88 238.445C1984.18 237.426 1986.42 236.598 1988.59 235.961C1990.89 235.324 1992.75 235.005 1994.15 235.005C1996.2 235.005 1997.67 235.706 1998.57 237.108C1999.46 238.509 1999.91 240.484 1999.91 243.032C1999.91 246.218 1999.4 250.167 1998.38 254.882C1997.35 259.596 1996.07 264.756 1994.54 270.362C1993 275.968 1991.28 281.829 1989.36 287.945C1987.57 294.061 1985.9 300.113 1984.37 306.101C1982.84 312.089 1981.56 317.887 1980.53 323.493C1979.51 329.099 1979 334.131 1979 338.591C1979 341.776 1979.25 344.834 1979.77 347.764C1980.28 350.695 1981.24 353.307 1982.64 355.6C1984.05 357.766 1985.97 359.55 1988.4 360.952C1990.96 362.226 1994.22 362.863 1998.18 362.863C1999.59 362.353 2001.06 362.098 2002.6 362.098C2007.33 362.098 2010.4 365.029 2011.81 370.89C2011.81 372.673 2010.65 374.648 2008.35 376.814C2006.05 378.98 2003.17 381.083 1999.72 383.121C1996.27 385.032 1992.49 386.625 1988.4 387.899C1984.31 389.301 1980.4 390.001 1976.7 390.001C1971.2 390.001 1966.59 389.173 1962.88 387.517C1959.17 385.733 1956.17 383.312 1953.86 380.254C1951.56 377.197 1949.9 373.565 1948.88 369.361C1947.85 365.156 1947.34 360.569 1947.34 355.6Z" fill="white"/>
<path d="M2013.15 456.51C2013.15 451.668 2014.04 446.699 2015.83 441.603C2017.63 436.634 2020.06 431.792 2023.12 427.078C2026.32 422.364 2029.97 417.904 2034.06 413.7C2038.28 409.623 2042.76 405.991 2047.49 402.806C2052.22 399.748 2057.08 397.328 2062.07 395.544C2067.19 393.76 2072.24 392.868 2077.23 392.868C2074.54 395.926 2071.34 399.43 2067.64 403.38C2064.05 407.329 2060.54 411.47 2057.08 415.802C2053.76 420.134 2050.94 424.466 2048.64 428.798C2046.34 433.258 2045.19 437.462 2045.19 441.412C2045.19 442.813 2045.25 444.342 2045.38 445.999C2045.64 447.655 2046.08 449.184 2046.72 450.585C2047.36 451.987 2048.19 453.197 2049.22 454.217C2050.24 455.236 2051.65 455.746 2053.44 455.746C2060.22 455.746 2065.72 452.688 2069.94 446.572C2074.29 440.456 2077.93 432.302 2080.87 422.109C2083.94 412.044 2086.57 400.449 2088.74 387.326C2091.04 374.202 2093.54 360.697 2096.22 346.809C2092.39 352.542 2088.48 357.957 2084.52 363.054C2080.68 368.023 2076.91 372.355 2073.2 376.05C2069.62 379.745 2066.16 382.675 2062.84 384.841C2059.51 386.88 2056.51 387.899 2053.82 387.899L2047.3 381.974C2046.15 378.662 2045.32 374.839 2044.8 370.507C2044.42 366.175 2044.23 361.461 2044.23 356.365C2044.23 349.485 2044.42 342.286 2044.8 334.769C2045.19 327.251 2045.38 319.861 2045.38 312.599C2045.38 306.101 2045.19 299.603 2044.8 293.105C2044.42 286.48 2043.46 280.555 2041.93 275.331C2040.39 269.98 2038.09 265.648 2035.02 262.335C2032.08 259.022 2027.99 257.366 2022.74 257.366C2020.95 257.366 2019.29 256.856 2017.75 255.837C2016.22 254.818 2015.45 253.544 2015.45 252.015C2015.45 249.212 2016.6 246.664 2018.9 244.37C2021.21 241.949 2024.02 239.911 2027.35 238.254C2030.67 236.471 2034.12 235.069 2037.71 234.05C2041.42 233.031 2044.68 232.521 2047.49 232.521C2052.73 232.521 2057.08 234.305 2060.54 237.872C2063.99 241.312 2066.87 245.899 2069.17 251.633C2071.47 257.366 2073.26 263.864 2074.54 271.127C2075.82 278.389 2076.84 285.779 2077.61 293.296C2078.51 300.813 2079.21 308.14 2079.72 315.275C2080.36 322.282 2081.13 328.462 2082.02 333.813C2086.63 326.168 2091.3 318.269 2096.03 310.114C2100.89 301.96 2105.56 293.678 2110.04 285.269C2114.51 276.86 2118.8 268.451 2122.89 260.042C2127.11 251.633 2130.95 243.287 2134.4 235.005C2135.55 233.604 2136.64 232.648 2137.66 232.139C2138.81 231.629 2139.9 231.374 2140.92 231.374C2142.59 231.374 2144.12 232.202 2145.53 233.859C2146.94 235.388 2148.28 237.235 2149.56 239.401C2150.97 241.44 2152.31 243.478 2153.59 245.517C2154.99 247.428 2156.47 248.766 2158 249.53C2153.91 259.596 2150.07 270.744 2146.49 282.976C2143.04 295.08 2139.58 307.694 2136.13 320.817C2132.8 333.94 2129.35 347.255 2125.77 360.76C2122.31 374.139 2118.54 387.007 2114.45 399.366C2110.48 411.852 2106.07 423.511 2101.21 434.341C2096.48 445.298 2091.17 454.79 2085.29 462.817C2079.4 470.971 2072.75 477.342 2065.33 481.929C2058.04 486.643 2049.86 489 2040.78 489C2030.8 485.815 2023.7 481.355 2019.48 475.622C2015.26 469.888 2013.15 463.518 2013.15 456.51Z" fill="white"/>
</svg>
